<svg id="visual" viewBox="0 0 900 600" width="900" height="600" xmlns="http://www.w3.org/2000/svg" xmlns:xlink="http://www.w3.org/1999/xlink" version="1.1"><rect x="0" y="0" width="900" height="600" fill="#001220"></rect><path d="M0 375L21.5 379C43 383 86 391 128.8 387C171.7 383 214.3 367 257.2 362.5C300 358 343 365 385.8 375.5C428.7 386 471.3 400 514.2 409.5C557 419 600 424 642.8 413.8C685.7 403.7 728.3 378.3 771.2 372.8C814 367.3 857 381.7 878.5 388.8L900 396L900 601L878.5 601C857 601 814 601 771.2 601C728.3 601 685.7 601 642.8 601C600 601 557 601 514.2 601C471.3 601 428.7 601 385.8 601C343 601 300 601 257.2 601C214.3 601 171.7 601 128.8 601C86 601 43 601 21.5 601L0 601Z" fill="#fa7268"></path><path d="M0 475L21.5 474.3C43 473.7 86 472.3 128.8 463.7C171.7 455 214.3 439 257.2 434.7C300 430.3 343 437.7 385.8 434.7C428.7 431.7 471.3 418.3 514.2 415.8C557 413.3 600 421.7 642.8 428C685.7 434.3 728.3 438.7 771.2 442.3C814 446 857 449 878.5 450.5L900 452L900 601L878.5 601C857 601 814 601 771.2 601C728.3 601 685.7 601 642.8 601C600 601 557 601 514.2 601C471.3 601 428.7 601 385.8 601C343 601 300 601 257.2 601C214.3 601 171.7 601 128.8 601C86 601 43 601 21.5 601L0 601Z" fill="#be5079"></path><path d="M0 472L21.5 469C43 466 86 460 128.8 465.7C171.7 471.3 214.3 488.7 257.2 493.8C300 499 343 492 385.8 485.8C428.7 479.7 471.3 474.3 514.2 477.5C557 480.7 600 492.3 642.8 493.7C685.7 495 728.3 486 771.2 485.7C814 485.3 857 493.7 878.5 497.8L900 502L900 601L878.5 601C857 601 814 601 771.2 601C728.3 601 685.7 601 642.8 601C600 601 557 601 514.2 601C471.3 601 428.7 601 385.8 601C343 601 300 601 257.2 601C214.3 601 171.7 601 128.8 601C86 601 43 601 21.5 601L0 601Z" fill="#723f71"></path><path d="M0 496L21.5 503.7C43 511.3 86 526.7 128.8 524C171.7 521.3 214.3 500.7 257.2 496.2C300 491.7 343 503.3 385.8 508.8C428.7 514.3 471.3 513.7 514.2 516.3C557 519 600 525 642.8 523.5C685.7 522 728.3 513 771.2 506.3C814 499.7 857 495.3 878.5 493.2L900 491L900 601L878.5 601C857 601 814 601 771.2 601C728.3 601 685.7 601 642.8 601C600 601 557 601 514.2 601C471.3 601 428.7 601 385.8 601C343 601 300 601 257.2 601C214.3 601 171.7 601 128.8 601C86 601 43 601 21.5 601L0 601Z" fill="#2c2c4f"></path><path d="M0 547L21.5 547.7C43 548.3 86 549.7 128.8 549.3C171.7 549 214.3 547 257.2 550.7C300 554.3 343 563.7 385.8 566C428.7 568.3 471.3 563.7 514.2 562.5C557 561.3 600 563.7 642.8 559.3C685.7 555 728.3 544 771.2 540.2C814 536.3 857 539.7 878.5 541.3L900 543L900 601L878.5 601C857 601 814 601 771.2 601C728.3 601 685.7 601 642.8 601C600 601 557 601 514.2 601C471.3 601 428.7 601 385.8 601C343 601 300 601 257.2 601C214.3 601 171.7 601 128.8 601C86 601 43 601 21.5 601L0 601Z" fill="#001220"></path></svg>